<?xml version="1.0" standalone="no"?>
<!DOCTYPE svg PUBLIC "-//W3C//DTD SVG 20010904//EN"
 "http://www.w3.org/TR/2001/REC-SVG-20010904/DTD/svg10.dtd">
<svg version="1.0" xmlns="http://www.w3.org/2000/svg"
 width="521.000000pt" height="479.000000pt" viewBox="0 0 521.000000 479.000000"
 preserveAspectRatio="xMidYMid meet">

<g transform="translate(0.000000,479.000000) scale(0.100000,-0.100000)"
fill="#000000" stroke="none">
<path d="M4570 4783 c-29 -11 -56 -42 -312 -361 -227 -285 -258 -328 -258
-359 0 -88 91 -144 159 -97 23 17 520 635 540 672 40 75 -49 174 -129 145z"/>
<path d="M3195 4278 c-62 -22 -87 -44 -180 -158 -38 -47 -72 -87 -75 -90 -3
-3 -105 -125 -227 -272 -123 -147 -227 -269 -232 -272 -5 -4 -87 7 -183 23
-171 29 -222 35 -265 32 -25 -1 -42 -19 -206 -216 -428 -516 -725 -807 -1036
-1016 -103 -70 -255 -151 -353 -190 -80 -31 -238 -69 -293 -69 -73 -1 -117
-26 -134 -76 -14 -40 -13 -44 15 -100 19 -38 60 -90 115 -146 71 -70 103 -94
173 -128 127 -61 247 -84 406 -76 69 4 144 9 168 12 26 4 42 2 42 -4 0 -6 -75
-190 -166 -409 -92 -219 -192 -461 -224 -538 -32 -77 -85 -206 -119 -286 -64
-152 -72 -198 -45 -238 38 -54 135 -59 169 -8 8 13 44 95 81 182 36 88 89 214
116 280 28 66 72 172 98 235 26 63 76 183 110 265 34 83 75 182 92 220 16 39
43 104 59 145 17 41 39 93 49 115 84 184 93 240 47 283 -39 37 -66 41 -137 20
-282 -81 -471 -87 -625 -19 -56 24 -115 62 -115 73 0 4 19 13 42 19 167 46
303 105 450 194 90 55 265 179 319 227 15 13 64 55 110 95 174 148 474 468
714 758 54 66 111 134 127 151 l28 30 158 -28 c86 -15 187 -31 224 -34 l68 -7
48 49 c26 27 66 72 89 99 216 262 327 390 336 388 7 -1 37 -9 67 -17 112 -32
233 -8 329 65 28 21 55 39 60 39 5 0 16 -10 24 -22 9 -13 30 -39 47 -58 70
-78 70 -68 -5 -182 -125 -191 -227 -428 -291 -673 -47 -181 -92 -504 -80 -570
9 -46 57 -85 104 -85 32 0 68 23 272 175 398 298 550 410 560 413 13 5 89
-113 107 -164 19 -55 14 -134 -12 -187 -26 -55 -183 -225 -311 -338 -205 -180
-383 -313 -621 -464 -87 -55 -125 -85 -133 -106 -12 -29 -8 -310 6 -466 4 -35
2 -63 -2 -63 -5 1 -27 24 -49 51 -62 77 -113 96 -174 64 -56 -29 -57 -38 -30
-375 23 -293 29 -373 39 -520 16 -222 18 -236 46 -270 49 -58 140 -45 170 25
14 35 15 27 -16 420 -6 72 -13 171 -16 220 l-6 90 56 -57 c47 -49 61 -58 91
-58 20 0 49 7 64 15 52 26 54 46 42 357 -6 156 -11 325 -11 375 l0 93 173 114
c303 202 634 486 797 686 119 145 152 311 96 477 -20 58 -172 298 -208 328
-18 16 -42 25 -62 25 -38 0 -61 -16 -406 -276 -124 -93 -249 -187 -278 -208
l-54 -39 7 49 c10 74 62 281 96 386 57 174 169 387 286 544 57 76 70 114 55
154 -6 14 -41 62 -79 106 -37 45 -119 143 -182 218 -112 135 -153 171 -220
194 -41 15 -145 14 -186 0z m129 -204 c9 -3 16 -12 16 -20 0 -26 -101 -84
-146 -84 -24 0 -15 18 29 65 42 43 66 52 101 39z"/>
<path d="M4675 3965 c-238 -118 -399 -204 -412 -220 -37 -42 -28 -108 21 -147
46 -38 74 -28 488 176 216 106 402 204 413 216 14 15 20 36 20 67 0 38 -5 49
-33 74 -57 51 -67 48 -497 -166z"/>
<path d="M4328 3412 c-15 -2 -39 -17 -53 -33 -35 -43 -34 -98 3 -139 32 -36
13 -33 470 -85 268 -30 308 -33 337 -21 91 38 86 165 -8 195 -17 6 -77 15
-132 21 -55 5 -136 14 -180 19 -44 6 -145 17 -225 26 -80 8 -154 17 -165 18
-11 1 -32 1 -47 -1z"/>
<path d="M2272 3104 c-12 -8 -29 -29 -38 -45 -37 -73 -131 -149 -184 -149 -55
0 -99 -48 -100 -108 0 -35 6 -49 29 -73 89 -88 324 25 433 210 37 62 37 109
-1 150 -24 26 -37 31 -73 31 -24 0 -54 -7 -66 -16z"/>
</g>
</svg>
